<svg xmlns="http://www.w3.org/2000/svg" width="101" height="43.305" viewBox="0 0 101 43.305">
    <defs>
        <style>
            .cls-1{fill:none}.cls-2{fill:#fff}.cls-3{clip-path:url(#clip-path)}.cls-4{fill:#009ede}.cls-5{fill:#63b078}.cls-6{fill:#25395c}.cls-7{fill:#e5cfbd}.cls-8{fill:#e5481e}.cls-9{fill:#de2442}
        </style>
        <clipPath id="clip-path">
            <path id="Trazado_1839" d="M-1248.687-169.6a21.134 21.134 0 0 0 21.134 21.134 21.133 21.133 0 0 0 21.133-21.134 21.133 21.133 0 0 0-21.133-21.134 21.134 21.134 0 0 0-21.134 21.134" class="cls-1" data-name="Trazado 1839" transform="translate(1248.687 190.736)"/>
        </clipPath>
    </defs>
    <g id="Logotipo">
        <path id="Trazado_1789" d="M-1036.563-155.36c0 3.608-2.553 5.949-6.519 5.949s-6.52-2.342-6.52-5.949 2.553-5.928 6.52-5.928 6.519 2.32 6.519 5.928m-8.249.063c0 1.35.675 2.236 1.73 2.236s1.73-.886 1.73-2.236-.675-2.237-1.73-2.237-1.73.886-1.73 2.237" class="cls-2" data-name="Trazado 1789" transform="translate(1110.202 170.795)"/>
        <path id="Trazado_1790" d="M-991.258-155.36c0 3.608-2.553 5.949-6.519 5.949s-6.519-2.342-6.519-5.949 2.553-5.928 6.519-5.928 6.519 2.32 6.519 5.928m-8.249.063c0 1.35.675 2.236 1.73 2.236s1.73-.886 1.73-2.236-.675-2.237-1.73-2.237-1.73.886-1.73 2.237" class="cls-2" data-name="Trazado 1790" transform="translate(1078.569 170.795)"/>
        <g id="Grupo_1216" data-name="Grupo 1216" transform="translate(.519 .62)">
            <g id="Grupo_1215" class="cls-3" data-name="Grupo 1215">
                <path id="Rect치ngulo_247" d="M0 0h42.267v42.268H0z" class="cls-4" data-name="Rect치ngulo 247" transform="translate(0 -.136)"/>
                <path id="Trazado_1791" d="M-1217.292-162.681l-8.633-6.33a3.272 3.272 0 0 0-3.868 0l-8.633 6.33-9.23 6.768a3.27 3.27 0 0 0-1.337 2.638v8.359a3.27 3.27 0 0 0 3.27 3.271H-1210a3.271 3.271 0 0 0 3.271-3.271v-8.359a3.27 3.27 0 0 0-1.337-2.638z" class="cls-5" data-name="Trazado 1791" transform="translate(1248.9 176.009)"/>
                <path id="Trazado_1792" d="M-1210.447-141.91h-35.726a3.469 3.469 0 0 1-3.465-3.465v-8.359a3.477 3.477 0 0 1 1.416-2.795l17.863-13.1a3.452 3.452 0 0 1 4.1 0l17.863 13.1a3.478 3.478 0 0 1 1.416 2.795v8.359a3.469 3.469 0 0 1-3.465 3.465m-17.863-28a3.071 3.071 0 0 0-1.819.6l-17.863 13.1a3.087 3.087 0 0 0-1.257 2.481v8.359a3.08 3.08 0 0 0 3.076 3.076h35.726a3.08 3.08 0 0 0 3.076-3.076v-8.359a3.086 3.086 0 0 0-1.257-2.481l-17.863-13.1a3.072 3.072 0 0 0-1.819-.6" class="cls-6" data-name="Trazado 1792" transform="translate(1249.351 176.467)"/>
                <path id="Trazado_1793" d="M-1213.948-132.109l-1.433 2.311v5.819l2.928-1.144v-4.277z" class="cls-7" data-name="Trazado 1793" transform="translate(1225.433 149.802)"/>
                <path id="Trazado_1794" d="M-1215.831-124.234a.194.194 0 0 1-.109-.034.194.194 0 0 1-.085-.161v-5.82a.194.194 0 0 1 .029-.1l1.433-2.311a.192.192 0 0 1 .17-.092.2.2 0 0 1 .166.1l1.5 2.7a.194.194 0 0 1 .024.094v4.283a.194.194 0 0 1-.124.181l-2.928 1.144a.193.193 0 0 1-.071.013m.195-5.958v5.479l2.539-.992v-4.1l-1.31-2.37z" class="cls-6" data-name="Trazado 1794" transform="translate(1225.882 150.252)"/>
                <path id="Trazado_1795" d="M-1218.441-132.375l-3.375-.115.1 2.009 1.838.418z" class="cls-8" data-name="Trazado 1795" transform="translate(1229.925 150.068)"/>
                <path id="Trazado_1796" d="M-1220.324-130.32a.234.234 0 0 1-.043 0l-1.838-.418a.2.2 0 0 1-.151-.18l-.1-2.009a.194.194 0 0 1 .055-.146.2.2 0 0 1 .146-.059l3.374.115a.2.2 0 0 1 .165.1.2.2 0 0 1-.006.194l-1.432 2.311a.2.2 0 0 1-.165.092m-1.652-.769l1.559.354 1.182-1.908-2.827-.1z" class="cls-6" data-name="Trazado 1796" transform="translate(1230.375 150.518)"/>
                <path id="Trazado_1797" d="M-1247.763-142.423v14.159l9.772-3.638v-7.523z" class="cls-7" data-name="Trazado 1797" transform="translate(1248.042 157.003)"/>
                <path id="Trazado_1798" d="M-1248.362-128.6a.258.258 0 0 1-.148-.046.259.259 0 0 1-.111-.213v-14.159a.259.259 0 0 1 .105-.209.26.26 0 0 1 .23-.04l9.772 3a.259.259 0 0 1 .183.248v7.523a.259.259 0 0 1-.169.243l-9.772 3.638a.259.259 0 0 1-.09.016m.259-14.067v13.435l9.254-3.445v-7.151z" class="cls-6" data-name="Trazado 1798" transform="translate(1248.641 157.603)"/>
                <path id="Trazado_1799" d="M-1246.056-152.953l-3.618-4.228-9.641-4.617 3.486 5.847z" class="cls-9" data-name="Trazado 1799" transform="translate(1256.108 170.531)"/>
                <path id="Trazado_1800" d="M-1246.656-153.294a.258.258 0 0 1-.076-.012l-9.772-3a.256.256 0 0 1-.146-.115l-3.486-5.847a.259.259 0 0 1 .031-.308.259.259 0 0 1 .3-.059l9.641 4.617a.252.252 0 0 1 .085.065l3.617 4.228a.259.259 0 0 1 .02.311.26.26 0 0 1-.217.117m-9.6-3.476l8.823 2.706-3-3.508-8.817-4.222z" class="cls-6" data-name="Trazado 1800" transform="translate(1256.708 171.131)"/>
                <path id="Trazado_1801" d="M-1227.025-118.076l-1.709.741v-5.8a.986.986 0 0 1 .854-1.078.986.986 0 0 1 .855 1.078z" class="cls-8" data-name="Trazado 1801" transform="translate(1234.755 144.291)"/>
                <path id="Trazado_1802" d="M-1229.334-117.676a.259.259 0 0 1-.143-.043.259.259 0 0 1-.117-.217v-5.8a1.242 1.242 0 0 1 1.114-1.337 1.242 1.242 0 0 1 1.114 1.337v5.063a.26.26 0 0 1-.156.238l-1.709.741a.262.262 0 0 1-.1.021m.854-6.882c-.322 0-.595.375-.595.818v5.409l1.19-.516v-4.893c0-.444-.272-.818-.6-.818m.855 5.881z" class="cls-6" data-name="Trazado 1802" transform="translate(1235.356 144.891)"/>
                <path id="Trazado_1803" d="M-1227.824-117.9l-1.144.349v-5.473c0-.561.256-1.016.572-1.016s.572.455.572 1.016z" class="cls-6" data-name="Trazado 1803" transform="translate(1234.919 144.169)"/>
                <path id="Trazado_1804" d="M-1210.873-117.674l-.958.416v-3.255a.553.553 0 0 1 .479-.6.553.553 0 0 1 .479.6z" class="cls-8" data-name="Trazado 1804" transform="translate(1222.953 142.128)"/>
                <path id="Trazado_1805" d="M-1212.131-117.429a.128.128 0 0 1-.071-.021.129.129 0 0 1-.059-.108v-3.255a.681.681 0 0 1 .609-.734.681.681 0 0 1 .609.734v2.84a.13.13 0 0 1-.078.119l-.958.416a.131.131 0 0 1-.052.011m.479-3.86c-.193 0-.35.213-.35.475v3.058l.7-.3v-2.755c0-.262-.157-.475-.349-.475m.479 3.314z" class="cls-6" data-name="Trazado 1805" transform="translate(1223.254 142.428)"/>
                <path id="Trazado_1806" d="M-1211.32-117.577l-.642.2v-3.07c0-.315.144-.571.321-.571s.321.256.321.571z" class="cls-6" data-name="Trazado 1806" transform="translate(1223.045 142.06)"/>
                <path id="Trazado_1807" d="M-1240.013-125.417l-2.156.424v-5.8a1.077 1.077 0 0 1 1.078-1.077 1.078 1.078 0 0 1 1.078 1.077z" class="cls-8" data-name="Trazado 1807" transform="translate(1244.136 149.638)"/>
                <path id="Trazado_1808" d="M-1242.769-125.334a.259.259 0 0 1-.165-.059.259.259 0 0 1-.094-.2v-5.8a1.338 1.338 0 0 1 1.337-1.337 1.339 1.339 0 0 1 1.337 1.337v5.38a.26.26 0 0 1-.209.255l-2.155.424a.255.255 0 0 1-.05 0m1.078-6.882a.819.819 0 0 0-.818.818v5.489l1.637-.322v-5.169a.819.819 0 0 0-.818-.818m1.078 6.2z" class="cls-6" data-name="Trazado 1808" transform="translate(1244.736 150.238)"/>
                <path id="Trazado_1809" d="M-1240.4-124.8l-1.318.174v-5.515c0-.566.3-1.024.659-1.024s.659.458.659 1.024z" class="cls-6" data-name="Trazado 1809" transform="translate(1243.82 149.143)"/>
                <path id="Trazado_1810" d="M-1149.939-132.109l1.433 2.311v5.819l-2.929-1.144v-4.277z" class="cls-7" data-name="Trazado 1810" transform="translate(1180.784 149.802)"/>
                <path id="Trazado_1811" d="M-1148.957-124.235a.193.193 0 0 1-.071-.013l-2.928-1.144a.2.2 0 0 1-.124-.181v-4.282a.2.2 0 0 1 .025-.094l1.5-2.7a.2.2 0 0 1 .166-.1.193.193 0 0 1 .171.092l1.432 2.311a.194.194 0 0 1 .029.1v5.819a.194.194 0 0 1-.085.161.193.193 0 0 1-.109.034m-2.734-1.472l2.539.992v-5.479l-1.229-1.982-1.31 2.37z" class="cls-6" data-name="Trazado 1811" transform="translate(1181.234 150.252)"/>
                <path id="Trazado_1812" d="M-1146.479-132.375l3.375-.115-.1 2.009-1.838.418z" class="cls-8" data-name="Trazado 1812" transform="translate(1177.324 150.068)"/>
                <path id="Trazado_1813" d="M-1145.5-130.32a.2.2 0 0 1-.166-.092l-1.432-2.311a.194.194 0 0 1-.006-.194.2.2 0 0 1 .165-.1l3.375-.115a.2.2 0 0 1 .145.058.192.192 0 0 1 .055.146l-.1 2.009a.194.194 0 0 1-.151.18l-1.839.418a.207.207 0 0 1-.043 0m-1.09-2.323l1.182 1.908 1.559-.354.085-1.65z" class="cls-6" data-name="Trazado 1813" transform="translate(1177.774 150.518)"/>
                <path id="Trazado_1814" d="M-1131.959-142.423v14.159l-9.772-3.638v-7.523z" class="cls-7" data-name="Trazado 1814" transform="translate(1174.009 157.003)"/>
                <path id="Trazado_1815" d="M-1132.559-128.605a.259.259 0 0 1-.09-.016l-9.773-3.638a.26.26 0 0 1-.169-.243v-7.523a.259.259 0 0 1 .183-.248l9.773-3a.259.259 0 0 1 .23.039.26.26 0 0 1 .105.209v14.159a.26.26 0 0 1-.111.213.261.261 0 0 1-.148.046m-9.513-4.078l9.254 3.445v-13.435l-9.254 2.838z" class="cls-6" data-name="Trazado 1815" transform="translate(1174.609 157.604)"/>
                <path id="Trazado_1816" d="M-1141.732-152.953l3.617-4.228 9.641-4.617-3.486 5.847z" class="cls-9" data-name="Trazado 1816" transform="translate(1174.009 170.531)"/>
                <path id="Trazado_1817" d="M-1142.332-153.294a.259.259 0 0 1-.217-.117.259.259 0 0 1 .02-.311l3.617-4.228a.258.258 0 0 1 .085-.065l9.641-4.617a.26.26 0 0 1 .3.059.26.26 0 0 1 .031.308l-3.486 5.847a.261.261 0 0 1-.147.115l-9.772 3a.263.263 0 0 1-.076.011m3.779-4.277l-3 3.508 8.823-2.706 2.995-5.023z" class="cls-6" data-name="Trazado 1817" transform="translate(1174.61 171.131)"/>
                <path id="Trazado_1818" d="M-1134.041-118.076l1.709.741v-5.8a.986.986 0 0 0-.854-1.078.986.986 0 0 0-.855 1.078z" class="cls-8" data-name="Trazado 1818" transform="translate(1168.639 144.291)"/>
                <path id="Trazado_1819" d="M-1132.932-117.676a.263.263 0 0 1-.1-.021l-1.709-.741a.26.26 0 0 1-.156-.238v-5.063a1.242 1.242 0 0 1 1.114-1.337 1.242 1.242 0 0 1 1.114 1.337v5.8a.259.259 0 0 1-.117.217.257.257 0 0 1-.142.043m-1.449-1.171l1.19.516v-5.409c0-.444-.272-.818-.595-.818s-.6.375-.6.818z" class="cls-6" data-name="Trazado 1819" transform="translate(1169.24 144.891)"/>
                <path id="Trazado_1820" d="M-1131.937-117.9l1.145.349v-5.473c0-.561-.256-1.016-.573-1.016s-.572.455-.572 1.016z" class="cls-6" data-name="Trazado 1820" transform="translate(1167.17 144.169)"/>
                <path id="Trazado_1821" d="M-1148.458-117.674l.959.416v-3.255a.553.553 0 0 0-.479-.6.553.553 0 0 0-.479.6z" class="cls-8" data-name="Trazado 1821" transform="translate(1178.705 142.128)"/>
                <path id="Trazado_1822" d="M-1147.8-117.429a.126.126 0 0 1-.051-.011l-.959-.416a.129.129 0 0 1-.078-.119v-2.84a.681.681 0 0 1 .609-.734.681.681 0 0 1 .609.734v3.255a.13.13 0 0 1-.058.109.131.131 0 0 1-.071.021m-.829-.63l.7.3v-3.058c0-.262-.156-.475-.349-.475s-.349.213-.349.475z" class="cls-6" data-name="Trazado 1822" transform="translate(1179.006 142.428)"/>
                <path id="Trazado_1823" d="M-1147.278-117.577l.642.2v-3.07c0-.315-.144-.571-.321-.571s-.321.256-.321.571z" class="cls-6" data-name="Trazado 1823" transform="translate(1177.882 142.06)"/>
                <path id="Trazado_1824" d="M-1122.086-125.417l2.155.424v-5.8a1.078 1.078 0 0 0-1.078-1.077 1.077 1.077 0 0 0-1.078 1.077z" class="cls-8" data-name="Trazado 1824" transform="translate(1160.292 149.638)"/>
                <path id="Trazado_1825" d="M-1120.53-125.334a.251.251 0 0 1-.05 0l-2.156-.424a.26.26 0 0 1-.209-.255v-5.38a1.339 1.339 0 0 1 1.337-1.337 1.339 1.339 0 0 1 1.337 1.337v5.8a.259.259 0 0 1-.094.2.261.261 0 0 1-.165.059m-1.9-.9l1.636.322v-5.488a.819.819 0 0 0-.818-.818.819.819 0 0 0-.818.818z" class="cls-6" data-name="Trazado 1825" transform="translate(1160.892 150.238)"/>
                <path id="Trazado_1826" d="M-1119.765-124.8l1.319.174v-5.515c0-.566-.3-1.024-.659-1.024s-.659.458-.659 1.024z" class="cls-6" data-name="Trazado 1826" transform="translate(1158.672 149.143)"/>
                <path id="Trazado_1827" d="M-1164.852-94.733a15.678 15.678 0 0 1-15.678 15.678 15.678 15.678 0 0 1-15.678-15.678 15.678 15.678 0 0 1 15.678-15.678 15.678 15.678 0 0 1 15.678 15.678" class="cls-9" data-name="Trazado 1827" transform="translate(1212.045 134.652)"/>
                <path id="Trazado_1828" d="M-1181.13-79.4a15.955 15.955 0 0 1-15.937-15.937 15.955 15.955 0 0 1 15.937-15.937 15.955 15.955 0 0 1 15.938 15.937A15.956 15.956 0 0 1-1181.13-79.4m0-31.356a15.436 15.436 0 0 0-15.418 15.418 15.436 15.436 0 0 0 15.418 15.418 15.436 15.436 0 0 0 15.418-15.418 15.436 15.436 0 0 0-15.418-15.418" class="cls-6" data-name="Trazado 1828" transform="translate(1212.645 135.252)"/>
                <path id="Trazado_1829" d="M-1157.95-82.759a10.474 10.474 0 0 1-10.474 10.474 10.474 10.474 0 0 1-10.476-10.474 10.474 10.474 0 0 1 10.474-10.474 10.474 10.474 0 0 1 10.474 10.474" class="cls-5" data-name="Trazado 1829" transform="translate(1199.959 122.658)"/>
                <path id="Trazado_1830" d="M-1169.025-72.625a10.746 10.746 0 0 1-10.733-10.733 10.745 10.745 0 0 1 10.733-10.733 10.745 10.745 0 0 1 10.733 10.733 10.745 10.745 0 0 1-10.733 10.733m0-20.948a10.226 10.226 0 0 0-10.215 10.214 10.226 10.226 0 0 0 10.215 10.214 10.226 10.226 0 0 0 10.214-10.214 10.226 10.226 0 0 0-10.214-10.214" class="cls-6" data-name="Trazado 1830" transform="translate(1200.56 123.258)"/>
                <path id="Trazado_1831" d="M-1151.1-70.7a5.26 5.26 0 0 1-5.26 5.26 5.26 5.26 0 0 1-5.26-5.26 5.26 5.26 0 0 1 5.26-5.26 5.26 5.26 0 0 1 5.26 5.26" class="cls-8" data-name="Trazado 1831" transform="translate(1187.896 110.595)"/>
                <path id="Trazado_1832" d="M-1156.962-65.776a5.525 5.525 0 0 1-5.519-5.519 5.525 5.525 0 0 1 5.519-5.519 5.526 5.526 0 0 1 5.52 5.519 5.526 5.526 0 0 1-5.52 5.519m0-10.52a5.006 5.006 0 0 0-5 5 5.006 5.006 0 0 0 5 5 5.006 5.006 0 0 0 5-5 5.006 5.006 0 0 0-5-5" class="cls-6" data-name="Trazado 1832" transform="translate(1188.497 111.195)"/>
                <path id="Trazado_1833" d="M-1233.586-94.8a15.678 15.678 0 0 1-15.678 15.678 15.678 15.678 0 0 1-15.678-15.678 15.678 15.678 0 0 1 15.678-15.678 15.678 15.678 0 0 1 15.678 15.678" class="cls-8" data-name="Trazado 1833" transform="translate(1260.037 134.698)"/>
                <path id="Trazado_1834" d="M-1249.864-79.462A15.955 15.955 0 0 1-1265.8-95.4a15.955 15.955 0 0 1 15.937-15.937 15.955 15.955 0 0 1 15.937 15.937 15.956 15.956 0 0 1-15.937 15.937m0-31.356a15.436 15.436 0 0 0-15.419 15.419 15.436 15.436 0 0 0 15.418 15.418 15.436 15.436 0 0 0 15.419-15.418 15.436 15.436 0 0 0-15.418-15.418" class="cls-6" data-name="Trazado 1834" transform="translate(1260.636 135.298)"/>
                <path id="Trazado_1835" d="M-1226.75-82.759a10.474 10.474 0 0 1-10.474 10.474 10.474 10.474 0 0 1-10.476-10.474 10.474 10.474 0 0 1 10.474-10.474 10.474 10.474 0 0 1 10.474 10.474" class="cls-5" data-name="Trazado 1835" transform="translate(1247.996 122.658)"/>
                <path id="Trazado_1836" d="M-1237.824-72.625a10.745 10.745 0 0 1-10.733-10.733 10.745 10.745 0 0 1 10.733-10.733 10.745 10.745 0 0 1 10.733 10.733 10.745 10.745 0 0 1-10.733 10.733m0-20.948a10.226 10.226 0 0 0-10.214 10.214 10.226 10.226 0 0 0 10.214 10.214 10.226 10.226 0 0 0 10.214-10.214 10.226 10.226 0 0 0-10.214-10.214" class="cls-6" data-name="Trazado 1836" transform="translate(1248.596 123.258)"/>
                <path id="Trazado_1837" d="M-1219.9-70.7a5.26 5.26 0 0 1-5.26 5.26 5.26 5.26 0 0 1-5.26-5.26 5.26 5.26 0 0 1 5.26-5.26 5.26 5.26 0 0 1 5.26 5.26" class="cls-9" data-name="Trazado 1837" transform="translate(1235.933 110.595)"/>
                <path id="Trazado_1838" d="M-1225.761-65.776a5.526 5.526 0 0 1-5.519-5.519 5.526 5.526 0 0 1 5.519-5.519 5.526 5.526 0 0 1 5.52 5.519 5.526 5.526 0 0 1-5.52 5.519m0-10.52a5.006 5.006 0 0 0-5 5 5.006 5.006 0 0 0 5 5 5.006 5.006 0 0 0 5-5 5.006 5.006 0 0 0-5-5" class="cls-6" data-name="Trazado 1838" transform="translate(1236.533 111.195)"/>
            </g>
        </g>
        <path id="Trazado_1840" d="M-1198.739-170.809c-2.663-1.886-6.882-.275-9.638 3.5a10.993 10.993 0 0 0-2.132 7.99c-.1.143-.2.3-.3.458l-.356-.458a4.826 4.826 0 0 0-.46-3.823c-.127-.194-3.077-4.386-5.529-7.869l-.042-.059a1.487 1.487 0 0 0-.976-.617 1.476 1.476 0 0 0-1.119.265 1.524 1.524 0 0 0-.607.993 1.59 1.59 0 0 0-.02.242l-.446.335a1.478 1.478 0 0 0-.306-.086 1.466 1.466 0 0 0-1.118.263 1.518 1.518 0 0 0-.609.991 1.571 1.571 0 0 0-.017.37l-.44.33a1.478 1.478 0 0 0-1.313.219 1.522 1.522 0 0 0-.605.993 1.539 1.539 0 0 0 .263 1.139c.842 1.191 5.075 7.177 5.757 7.991a4.163 4.163 0 0 0 3.058 1.365l1.438 2.241-5.457 6.927a3.352 3.352 0 0 0-.667 2.534 3.535 3.535 0 0 0 1.4 2.359 3.342 3.342 0 0 0 1.986.654 3.326 3.326 0 0 0 .553-.046 3.406 3.406 0 0 0 2.232-1.422l3.452-5.55 3.554 5.54.023.034a3.4 3.4 0 0 0 2.769 1.442 3.345 3.345 0 0 0 1.986-.651 3.537 3.537 0 0 0 1.4-2.36 3.352 3.352 0 0 0-.668-2.534l-5.575-7.181c.4-.48 1.07-1.266 1.4-1.634a10.354 10.354 0 0 0 6.765-4.36 10.779 10.779 0 0 0 2.127-5.452c.148-2.07-.128-3.9-1.774-5.068" class="cls-2" data-name="Trazado 1840" transform="translate(1232.519 178.073)"/>
        <path id="Trazado_1841" d="M-1172.2-153.247a.509.509 0 0 1-.268-.076.533.533 0 0 1-.176-.725 1.814 1.814 0 0 1 1.2-.9 8.079 8.079 0 0 0 5.663-3.579 8.691 8.691 0 0 0 1.734-4.376 3.3 3.3 0 0 0-1.046-2.988c-1.666-1.26-4.685-.006-6.731 2.793a8.871 8.871 0 0 0-1.742 6.548 2.17 2.17 0 0 1-.21 1.164.515.515 0 0 1-.7.233.533.533 0 0 1-.229-.708 1.123 1.123 0 0 0 .112-.525 9.95 9.95 0 0 1 1.934-7.342 9.534 9.534 0 0 1 4.08-3.308 4.133 4.133 0 0 1 4.1.3 4.307 4.307 0 0 1 1.462 3.913 9.765 9.765 0 0 1-1.936 4.929 9.264 9.264 0 0 1-6.4 4c-.1.009-.311.228-.409.394a.516.516 0 0 1-.445.255" class="cls-6" data-name="Trazado 1841" transform="translate(1197.589 175.083)"/>
        <path id="Trazado_1842" d="M-1202.13-140.256a2.41 2.41 0 0 1-1.972-1.026l-.013-.02-8.768-13.665a3.509 3.509 0 0 1-2.843-1.016c-.691-.825-5.5-7.637-5.708-7.927a.534.534 0 0 1 .118-.737.513.513 0 0 1 .724.121c.05.07 4.992 7.067 5.655 7.858a2.8 2.8 0 0 0 2.241.625.515.515 0 0 1 .511.234l8.931 13.919a1.373 1.373 0 0 0 1.93.313 1.466 1.466 0 0 0 .583-.976 1.288 1.288 0 0 0-.252-.974l-9.976-12.85a.537.537 0 0 1-.067-.543 3.427 3.427 0 0 0 .007-2.776c-.138-.209-4.039-5.75-5.53-7.868a.534.534 0 0 1 .12-.737.513.513 0 0 1 .724.122c.552.785 5.4 7.674 5.551 7.9a4.176 4.176 0 0 1 .192 3.483l9.794 12.615a2.348 2.348 0 0 1 .466 1.776 2.529 2.529 0 0 1-1 1.687 2.386 2.386 0 0 1-1.412.463" class="cls-6" data-name="Trazado 1842" transform="translate(1230.246 175.76)"/>
        <path id="Trazado_1843" d="M-1208.1-154.335a.515.515 0 0 1-.423-.222l-5.052-7.215a.534.534 0 0 1 .122-.736.513.513 0 0 1 .724.123l5.052 7.216a.534.534 0 0 1-.121.736.509.509 0 0 1-.3.1" class="cls-6" data-name="Trazado 1843" transform="translate(1224.754 171.716)"/>
        <path id="Trazado_1844" d="M-1204.583-98.214a2.383 2.383 0 0 1-1.412-.463 2.529 2.529 0 0 1-1-1.687 2.347 2.347 0 0 1 .466-1.776l4.538-5.846a.513.513 0 0 1 .729-.087.534.534 0 0 1 .085.742l-4.539 5.846a1.288 1.288 0 0 0-.252.974 1.464 1.464 0 0 0 .583.976 1.373 1.373 0 0 0 1.929-.313l3.311-5.161a.514.514 0 0 1 .718-.153.533.533 0 0 1 .151.731l-3.318 5.171-.013.02a2.411 2.411 0 0 1-1.972 1.026" class="cls-6" data-name="Trazado 1844" transform="translate(1220.115 133.719)"/>
        <path id="Trazado_1845" d="M-1228.753-149.487a21.677 21.677 0 0 1-21.653-21.653 21.677 21.677 0 0 1 21.653-21.653 21.677 21.677 0 0 1 21.653 21.653 21.677 21.677 0 0 1-21.653 21.653m0-42.268a20.638 20.638 0 0 0-20.615 20.615 20.638 20.638 0 0 0 20.615 20.615 20.638 20.638 0 0 0 20.615-20.615 20.638 20.638 0 0 0-20.615-20.615" class="cls-2" data-name="Trazado 1845" transform="translate(1250.406 192.792)"/>
        <path id="Trazado_1846" d="M-1077.741-116.378h-5.1l-3.6 4.188v-4.188h-4.827v13.447h4.827v-3.641l.907-1.014 2.791 4.606h5.294l-5.065-8.008z" class="cls-2" data-name="Trazado 1846" transform="translate(1139.297 139.439)"/>
        <path id="Rect치ngulo_248" d="M0 0h4.3v14.182H0z" class="cls-2" data-name="Rect치ngulo 248" transform="translate(62.989 22.277)"/>
        <path id="Trazado_1847" d="M-1016.781-107.131c-3.593 0-5.906 2.1-5.906 5.371s2.313 5.39 5.906 5.39 5.906-2.122 5.906-5.39-2.313-5.371-5.906-5.371m0 7.454c-.956 0-1.568-.8-1.568-2.026s.612-2.026 1.568-2.026 1.567.8 1.567 2.026-.611 2.026-1.567 2.026" class="cls-2" data-name="Trazado 1847" transform="translate(1091.409 132.982)"/>
        <path id="Trazado_1848" d="M-974.814-105.538v-1.529h-4.3v10.455h4.3v-4.988c0-1.376 1.261-2.064 3.192-1.778v-3.88a3.719 3.719 0 0 0-3.192 1.72" class="cls-2" data-name="Trazado 1848" transform="translate(1060.986 133.071)"/>
        <path id="Trazado_1849" d="M-947.128-107.13c-3.363 0-5.581 2.121-5.581 5.428 0 3.23 2.122 5.332 5.7 5.332a6.152 6.152 0 0 0 4.74-1.911l-2.236-2.2a3.138 3.138 0 0 1-2.121.937 1.723 1.723 0 0 1-1.74-1.243h6.8c.23-3.861-1.911-6.345-5.562-6.345m-1.338 4.357c.172-.879.631-1.491 1.376-1.491a1.279 1.279 0 0 1 1.223 1.491z" class="cls-2" data-name="Trazado 1849" transform="translate(1042.549 132.981)"/>
        <path id="Trazado_1850" d="M-1079.373-167.782v-3.718h-11.9v15.064h4.9v-5.085h6.555v-3.713h-6.555v-2.553z" class="cls-2" data-name="Trazado 1850" transform="translate(1139.297 177.922)"/>
        <path id="Trazado_1851" d="M-950.763-171.7v4.491a3.959 3.959 0 0 0-3.06-1.35c-3.144 0-5.169 2.3-5.169 5.865 0 3.65 2.089 6.013 5.3 6.013a3.743 3.743 0 0 0 2.933-1.329v1.435h4.827V-171.7zm-1.709 11.369c-1.055 0-1.73-.886-1.73-2.236s.675-2.237 1.73-2.237c1.034 0 1.709.886 1.709 2.237s-.675 2.236-1.709 2.236" class="cls-2" data-name="Trazado 1851" transform="translate(1046.936 178.062)"/>
    </g>
</svg>
