<svg xmlns="http://www.w3.org/2000/svg" id="Logotipo" width="123" height="52.738" viewBox="0 0 123 52.738">
    <defs>
        <style>
            .cls-1{fill:none}.cls-2{fill:#fff}.cls-3{clip-path:url(#clip-path)}.cls-4{fill:#009ede}.cls-5{fill:#63b078}.cls-6{fill:#25395c}.cls-7{fill:#e5cfbd}.cls-8{fill:#e5481e}.cls-9{fill:#de2442}
        </style>
        <clipPath id="clip-path">
            <path id="Trazado_1839" d="M-1248.687-165a25.737 25.737 0 0 0 25.737 25.737A25.737 25.737 0 0 0-1197.213-165a25.737 25.737 0 0 0-25.737-25.737A25.737 25.737 0 0 0-1248.687-165" class="cls-1" data-name="Trazado 1839" transform="translate(1248.687 190.736)"/>
        </clipPath>
    </defs>
    <path id="Trazado_1789" d="M-1033.723-154.068c0 4.394-3.109 7.245-7.939 7.245s-7.94-2.852-7.94-7.245 3.109-7.22 7.94-7.22 7.939 2.826 7.939 7.22m-10.046.077c0 1.644.822 2.723 2.107 2.723s2.107-1.079 2.107-2.723-.822-2.724-2.107-2.724-2.107 1.079-2.107 2.724" class="cls-2" data-name="Trazado 1789" transform="translate(1123.402 172.866)"/>
    <path id="Trazado_1790" d="M-988.418-154.068c0 4.394-3.109 7.245-7.939 7.245s-7.939-2.852-7.939-7.245 3.109-7.22 7.939-7.22 7.939 2.826 7.939 7.22m-10.046.077c0 1.644.822 2.723 2.107 2.723s2.107-1.079 2.107-2.723-.822-2.724-2.107-2.724-2.107 1.079-2.107 2.724" class="cls-2" data-name="Trazado 1790" transform="translate(1094.747 172.866)"/>
    <g id="Grupo_1216" data-name="Grupo 1216" transform="translate(.632 .756)">
        <g id="Grupo_1215" class="cls-3" data-name="Grupo 1215">
            <path id="Rect치ngulo_247" d="M0 0h51.474v51.475H0z" class="cls-4" data-name="Rect치ngulo 247" transform="translate(0 -.165)"/>
            <path id="Trazado_1791" d="M-1210.387-161.165l-10.513-7.709a3.984 3.984 0 0 0-4.71 0l-10.513 7.709-11.241 8.242a3.983 3.983 0 0 0-1.628 3.212v10.179a3.983 3.983 0 0 0 3.983 3.983h43.509a3.983 3.983 0 0 0 3.983-3.983v-10.179a3.982 3.982 0 0 0-1.628-3.212z" class="cls-5" data-name="Trazado 1791" transform="translate(1248.88 177.396)"/>
            <path id="Trazado_1792" d="M-1201.91-135.726h-43.508a4.225 4.225 0 0 1-4.22-4.22v-10.179a4.234 4.234 0 0 1 1.725-3.4l21.754-15.95a4.2 4.2 0 0 1 4.991 0l21.754 15.95a4.236 4.236 0 0 1 1.725 3.4v10.179a4.225 4.225 0 0 1-4.22 4.22m-21.754-34.1a3.74 3.74 0 0 0-2.215.728l-21.754 15.95a3.76 3.76 0 0 0-1.531 3.021v10.179a3.751 3.751 0 0 0 3.746 3.746h43.508a3.75 3.75 0 0 0 3.746-3.746v-10.179a3.759 3.759 0 0 0-1.531-3.021l-21.754-15.95a3.741 3.741 0 0 0-2.215-.728" class="cls-6" data-name="Trazado 1792" transform="translate(1249.288 177.81)"/>
            <path id="Trazado_1793" d="M-1213.636-132.109l-1.745 2.815v7.087l3.566-1.393v-5.215z" class="cls-7" data-name="Trazado 1793" transform="translate(1227.622 153.656)"/>
            <path id="Trazado_1794" d="M-1215.789-122.378a.236.236 0 0 1-.133-.041.237.237 0 0 1-.1-.2v-7.081a.237.237 0 0 1 .036-.125l1.745-2.815a.234.234 0 0 1 .207-.112.238.238 0 0 1 .2.122l1.821 3.293a.236.236 0 0 1 .03.115v5.215a.237.237 0 0 1-.151.221l-3.566 1.394a.234.234 0 0 1-.086.016m.237-7.256v6.672l3.092-1.208v-4.992l-1.6-2.886z" class="cls-6" data-name="Trazado 1794" transform="translate(1228.029 154.063)"/>
            <path id="Trazado_1795" d="M-1217.706-132.35l-4.109-.14.126 2.446 2.239.509z" class="cls-8" data-name="Trazado 1795" transform="translate(1231.691 153.896)"/>
            <path id="Trazado_1796" d="M-1219.859-129.707a.285.285 0 0 1-.053-.005l-2.239-.509a.238.238 0 0 1-.184-.219l-.126-2.447a.237.237 0 0 1 .067-.178.24.24 0 0 1 .177-.071l4.109.14a.237.237 0 0 1 .2.125.237.237 0 0 1-.008.236l-1.745 2.815a.237.237 0 0 1-.2.112m-2.012-.937l1.9.431 1.44-2.323-3.443-.117z" class="cls-6" data-name="Trazado 1796" transform="translate(1232.099 154.305)"/>
            <path id="Trazado_1797" d="M-1247.763-142.423v17.243l11.9-4.431v-9.162z" class="cls-7" data-name="Trazado 1797" transform="translate(1248.102 160.179)"/>
            <path id="Trazado_1798" d="M-1248.306-125.408a.314.314 0 0 1-.18-.057.316.316 0 0 1-.136-.259v-17.243a.315.315 0 0 1 .128-.254.316.316 0 0 1 .281-.048l11.9 3.651a.316.316 0 0 1 .223.3v9.162a.316.316 0 0 1-.206.3l-11.9 4.43a.316.316 0 0 1-.11.02m.316-17.132v16.361l11.269-4.2v-8.709z" class="cls-6" data-name="Trazado 1798" transform="translate(1248.646 160.723)"/>
            <path id="Trazado_1799" d="M-1243.168-151.027l-4.406-5.149-11.741-5.622 4.246 7.121z" class="cls-9" data-name="Trazado 1799" transform="translate(1255.409 172.433)"/>
            <path id="Trazado_1800" d="M-1243.712-151.254a.313.313 0 0 1-.092-.014l-11.9-3.651a.313.313 0 0 1-.178-.14l-4.246-7.12a.315.315 0 0 1 .038-.375.316.316 0 0 1 .37-.072l11.74 5.626a.307.307 0 0 1 .1.079l4.405 5.149a.315.315 0 0 1 .024.379.317.317 0 0 1-.264.143m-11.692-4.233l10.745 3.3-3.655-4.272-10.737-5.142z" class="cls-6" data-name="Trazado 1800" transform="translate(1255.953 172.977)"/>
            <path id="Trazado_1801" d="M-1226.653-116.739l-2.081.9v-7.061a1.2 1.2 0 0 1 1.04-1.312 1.2 1.2 0 0 1 1.041 1.312z" class="cls-8" data-name="Trazado 1801" transform="translate(1236.067 148.664)"/>
            <path id="Trazado_1802" d="M-1229.278-116.064a.315.315 0 0 1-.174-.052.316.316 0 0 1-.143-.264v-7.068a1.513 1.513 0 0 1 1.357-1.628 1.513 1.513 0 0 1 1.357 1.628v6.166a.316.316 0 0 1-.19.29l-2.081.9a.319.319 0 0 1-.125.026m1.04-8.381c-.393 0-.724.456-.724 1v6.587l1.449-.628v-5.958c0-.54-.332-1-.725-1m1.041 7.162z" class="cls-6" data-name="Trazado 1802" transform="translate(1236.611 149.207)"/>
            <path id="Trazado_1803" d="M-1227.574-116.564l-1.394.425v-6.661c0-.684.312-1.238.7-1.238s.7.554.7 1.238z" class="cls-6" data-name="Trazado 1803" transform="translate(1236.215 148.553)"/>
            <path id="Trazado_1804" d="M-1210.664-116.923l-1.167.506v-3.964a.673.673 0 0 1 .584-.736.673.673 0 0 1 .584.736z" class="cls-8" data-name="Trazado 1804" transform="translate(1225.376 146.704)"/>
            <path id="Trazado_1805" d="M-1212.1-116.531a.156.156 0 0 1-.087-.026.157.157 0 0 1-.071-.132v-3.964a.829.829 0 0 1 .742-.894.829.829 0 0 1 .742.894v3.458a.158.158 0 0 1-.1.145l-1.167.506a.159.159 0 0 1-.063.013m.584-4.7c-.235 0-.426.259-.426.578v3.724l.852-.369v-3.355c0-.319-.191-.578-.426-.578m.584 4.036z" class="cls-6" data-name="Trazado 1805" transform="translate(1225.648 146.976)"/>
            <path id="Trazado_1806" d="M-1211.18-116.827l-.782.239v-3.738c0-.384.175-.695.391-.695s.391.311.391.695z" class="cls-6" data-name="Trazado 1806" transform="translate(1225.459 146.643)"/>
            <path id="Trazado_1807" d="M-1239.544-124.01l-2.625.517v-7.069a1.312 1.312 0 0 1 1.312-1.312 1.313 1.313 0 0 1 1.313 1.312z" class="cls-8" data-name="Trazado 1807" transform="translate(1244.564 153.507)"/>
            <path id="Trazado_1808" d="M-1242.712-123.722a.315.315 0 0 1-.2-.072.315.315 0 0 1-.115-.244v-7.068a1.63 1.63 0 0 1 1.628-1.628 1.63 1.63 0 0 1 1.628 1.628v6.552a.316.316 0 0 1-.255.31l-2.625.516a.312.312 0 0 1-.061.006m1.312-8.381a1 1 0 0 0-1 1v6.684l1.993-.392v-6.292a1 1 0 0 0-1-1m1.313 7.548z" class="cls-6" data-name="Trazado 1808" transform="translate(1245.108 154.051)"/>
            <path id="Trazado_1809" d="M-1240.111-123.414l-1.606.211v-6.716c0-.689.359-1.247.8-1.247s.8.558.8 1.247z" class="cls-6" data-name="Trazado 1809" transform="translate(1244.278 153.059)"/>
            <path id="Trazado_1810" d="M-1149.614-132.109l1.745 2.815v7.087l-3.566-1.393v-5.215z" class="cls-7" data-name="Trazado 1810" transform="translate(1187.177 153.656)"/>
            <path id="Trazado_1811" d="M-1148.277-122.379a.235.235 0 0 1-.087-.016l-3.566-1.394a.237.237 0 0 1-.151-.221v-5.215a.238.238 0 0 1 .03-.115l1.821-3.293a.237.237 0 0 1 .2-.122.235.235 0 0 1 .208.112l1.744 2.815a.236.236 0 0 1 .036.125v7.087a.236.236 0 0 1-.1.2.236.236 0 0 1-.133.041m-3.329-1.792l3.092 1.208v-6.673l-1.5-2.414-1.6 2.886z" class="cls-6" data-name="Trazado 1811" transform="translate(1187.585 154.064)"/>
            <path id="Trazado_1812" d="M-1146.479-132.35l4.11-.14-.126 2.446-2.239.509z" class="cls-8" data-name="Trazado 1812" transform="translate(1184.042 153.896)"/>
            <path id="Trazado_1813" d="M-1145.142-129.707a.239.239 0 0 1-.2-.112l-1.744-2.815a.237.237 0 0 1-.008-.236.238.238 0 0 1 .2-.125l4.11-.14a.239.239 0 0 1 .177.071.233.233 0 0 1 .067.178l-.126 2.447a.237.237 0 0 1-.184.219l-2.239.509a.253.253 0 0 1-.052.006m-1.328-2.829l1.44 2.323 1.9-.431.1-2.009z" class="cls-6" data-name="Trazado 1813" transform="translate(1184.45 154.305)"/>
            <path id="Trazado_1814" d="M-1129.831-142.423v17.243l-11.9-4.431v-9.162z" class="cls-7" data-name="Trazado 1814" transform="translate(1181.04 160.179)"/>
            <path id="Trazado_1815" d="M-1130.374-125.408a.315.315 0 0 1-.11-.02l-11.9-4.43a.316.316 0 0 1-.205-.3v-9.162a.316.316 0 0 1 .223-.3l11.9-3.651a.315.315 0 0 1 .28.048.316.316 0 0 1 .128.254v17.243a.316.316 0 0 1-.136.259.318.318 0 0 1-.18.057m-11.585-4.966l11.269 4.2v-16.361l-11.269 3.457z" class="cls-6" data-name="Trazado 1815" transform="translate(1181.584 160.723)"/>
            <path id="Trazado_1816" d="M-1141.732-151.027l4.405-5.149 11.741-5.622-4.245 7.121z" class="cls-9" data-name="Trazado 1816" transform="translate(1181.04 172.433)"/>
            <path id="Trazado_1817" d="M-1142.276-151.255a.316.316 0 0 1-.264-.143.315.315 0 0 1 .024-.379l4.405-5.149a.315.315 0 0 1 .1-.079l11.741-5.622a.316.316 0 0 1 .37.072.316.316 0 0 1 .038.375l-4.245 7.12a.317.317 0 0 1-.179.14l-11.9 3.651a.32.32 0 0 1-.092.014m4.6-5.208l-3.655 4.272 10.745-3.3 3.647-6.117z" class="cls-6" data-name="Trazado 1817" transform="translate(1181.584 172.977)"/>
            <path id="Trazado_1818" d="M-1134.041-116.739l2.081.9v-7.061a1.2 1.2 0 0 0-1.04-1.312 1.2 1.2 0 0 0-1.041 1.312z" class="cls-8" data-name="Trazado 1818" transform="translate(1176.176 148.664)"/>
            <path id="Trazado_1819" d="M-1132.5-116.064a.32.32 0 0 1-.126-.026l-2.081-.9a.316.316 0 0 1-.19-.29v-6.166a1.513 1.513 0 0 1 1.357-1.628 1.513 1.513 0 0 1 1.356 1.628v7.068a.315.315 0 0 1-.143.264.313.313 0 0 1-.173.052m-1.765-1.426l1.449.628v-6.587c0-.54-.332-1-.724-1s-.725.456-.725 1z" class="cls-6" data-name="Trazado 1819" transform="translate(1176.719 149.207)"/>
            <path id="Trazado_1820" d="M-1131.937-116.564l1.394.425v-6.661c0-.684-.312-1.238-.7-1.238s-.7.554-.7 1.238z" class="cls-6" data-name="Trazado 1820" transform="translate(1174.845 148.553)"/>
            <path id="Trazado_1821" d="M-1148.458-116.923l1.167.506v-3.964a.673.673 0 0 0-.584-.736.673.673 0 0 0-.584.736z" class="cls-8" data-name="Trazado 1821" transform="translate(1185.294 146.704)"/>
            <path id="Trazado_1822" d="M-1147.563-116.531a.153.153 0 0 1-.062-.013l-1.168-.506a.157.157 0 0 1-.1-.145v-3.458a.829.829 0 0 1 .741-.894.829.829 0 0 1 .742.894v3.964a.159.159 0 0 1-.071.132.16.16 0 0 1-.087.026m-1.009-.768l.851.369v-3.724c0-.319-.191-.578-.426-.578s-.425.259-.425.578z" class="cls-6" data-name="Trazado 1822" transform="translate(1185.566 146.976)"/>
            <path id="Trazado_1823" d="M-1147.278-116.827l.782.239v-3.738c0-.384-.175-.695-.391-.695s-.391.311-.391.695z" class="cls-6" data-name="Trazado 1823" transform="translate(1184.548 146.643)"/>
            <path id="Trazado_1824" d="M-1122.086-124.01l2.625.517v-7.069a1.312 1.312 0 0 0-1.312-1.312 1.312 1.312 0 0 0-1.312 1.312z" class="cls-8" data-name="Trazado 1824" transform="translate(1168.615 153.507)"/>
            <path id="Trazado_1825" d="M-1120-123.722a.3.3 0 0 1-.061-.006l-2.625-.516a.316.316 0 0 1-.255-.31v-6.552a1.63 1.63 0 0 1 1.628-1.628 1.63 1.63 0 0 1 1.628 1.628v7.068a.315.315 0 0 1-.115.244.318.318 0 0 1-.2.072m-2.309-1.092l1.993.392v-6.684a1 1 0 0 0-1-1 1 1 0 0 0-1 1z" class="cls-6" data-name="Trazado 1825" transform="translate(1169.158 154.051)"/>
            <path id="Trazado_1826" d="M-1119.765-123.414l1.606.211v-6.716c0-.689-.36-1.247-.8-1.247s-.8.558-.8 1.247z" class="cls-6" data-name="Trazado 1826" transform="translate(1167.146 153.059)"/>
            <path id="Trazado_1827" d="M-1158.022-91.318a19.094 19.094 0 0 1-19.093 19.093 19.093 19.093 0 0 1-19.093-19.093 19.093 19.093 0 0 1 19.093-19.093 19.093 19.093 0 0 1 19.093 19.093" class="cls-9" data-name="Trazado 1827" transform="translate(1215.495 139.932)"/>
            <path id="Trazado_1828" d="M-1177.658-72.453a19.431 19.431 0 0 1-19.409-19.409 19.43 19.43 0 0 1 19.409-19.409 19.431 19.431 0 0 1 19.409 19.409 19.431 19.431 0 0 1-19.409 19.409m0-38.186a18.8 18.8 0 0 0-18.776 18.777 18.8 18.8 0 0 0 18.776 18.777 18.8 18.8 0 0 0 18.777-18.777 18.8 18.8 0 0 0-18.777-18.777" class="cls-6" data-name="Trazado 1828" transform="translate(1216.038 140.475)"/>
            <path id="Trazado_1829" d="M-1153.387-80.477a12.755 12.755 0 0 1-12.755 12.756 12.756 12.756 0 0 1-12.758-12.756 12.756 12.756 0 0 1 12.755-12.756 12.755 12.755 0 0 1 12.755 12.756" class="cls-5" data-name="Trazado 1829" transform="translate(1204.547 129.067)"/>
            <path id="Trazado_1830" d="M-1166.687-67.95a13.086 13.086 0 0 1-13.071-13.071 13.086 13.086 0 0 1 13.071-13.071 13.086 13.086 0 0 1 13.071 13.071 13.086 13.086 0 0 1-13.071 13.071m0-25.511a12.454 12.454 0 0 0-12.44 12.439 12.453 12.453 0 0 0 12.44 12.439 12.453 12.453 0 0 0 12.439-12.439 12.453 12.453 0 0 0-12.439-12.439" class="cls-6" data-name="Trazado 1830" transform="translate(1205.091 129.611)"/>
            <path id="Trazado_1831" d="M-1148.81-69.55a6.406 6.406 0 0 1-6.406 6.406 6.406 6.406 0 0 1-6.405-6.406 6.406 6.406 0 0 1 6.405-6.406 6.406 6.406 0 0 1 6.406 6.406" class="cls-8" data-name="Trazado 1831" transform="translate(1193.619 118.14)"/>
            <path id="Trazado_1832" d="M-1155.759-63.372a6.729 6.729 0 0 1-6.722-6.722 6.729 6.729 0 0 1 6.722-6.722 6.729 6.729 0 0 1 6.722 6.722 6.729 6.729 0 0 1-6.722 6.722m0-12.811a6.1 6.1 0 0 0-6.09 6.09 6.1 6.1 0 0 0 6.09 6.09 6.1 6.1 0 0 0 6.09-6.09 6.1 6.1 0 0 0-6.09-6.09" class="cls-6" data-name="Trazado 1832" transform="translate(1194.164 118.683)"/>
            <path id="Trazado_1833" d="M-1226.756-91.384a19.093 19.093 0 0 1-19.093 19.093 19.093 19.093 0 0 1-19.093-19.093 19.093 19.093 0 0 1 19.093-19.093 19.093 19.093 0 0 1 19.093 19.093" class="cls-8" data-name="Trazado 1833" transform="translate(1258.968 139.974)"/>
            <path id="Trazado_1834" d="M-1246.392-72.519a19.431 19.431 0 0 1-19.408-19.408 19.431 19.431 0 0 1 19.409-19.409 19.431 19.431 0 0 1 19.409 19.409 19.431 19.431 0 0 1-19.409 19.409m0-38.186a18.8 18.8 0 0 0-18.777 18.777 18.8 18.8 0 0 0 18.777 18.777 18.8 18.8 0 0 0 18.777-18.777 18.8 18.8 0 0 0-18.777-18.777" class="cls-6" data-name="Trazado 1834" transform="translate(1259.511 140.517)"/>
            <path id="Trazado_1835" d="M-1222.187-80.477a12.756 12.756 0 0 1-12.755 12.756 12.756 12.756 0 0 1-12.758-12.756 12.756 12.756 0 0 1 12.755-12.756 12.756 12.756 0 0 1 12.755 12.756" class="cls-5" data-name="Trazado 1835" transform="translate(1248.062 129.067)"/>
            <path id="Trazado_1836" d="M-1235.486-67.95a13.086 13.086 0 0 1-13.071-13.071 13.086 13.086 0 0 1 13.071-13.071 13.085 13.085 0 0 1 13.071 13.071 13.086 13.086 0 0 1-13.071 13.071m0-25.511a12.453 12.453 0 0 0-12.439 12.439 12.453 12.453 0 0 0 12.439 12.439 12.453 12.453 0 0 0 12.439-12.439 12.453 12.453 0 0 0-12.439-12.439" class="cls-6" data-name="Trazado 1836" transform="translate(1248.605 129.611)"/>
            <path id="Trazado_1837" d="M-1217.609-69.55a6.406 6.406 0 0 1-6.406 6.406 6.406 6.406 0 0 1-6.406-6.406 6.406 6.406 0 0 1 6.406-6.406 6.406 6.406 0 0 1 6.406 6.406" class="cls-9" data-name="Trazado 1837" transform="translate(1237.134 118.14)"/>
            <path id="Trazado_1838" d="M-1224.558-63.372a6.729 6.729 0 0 1-6.722-6.722 6.729 6.729 0 0 1 6.722-6.722 6.729 6.729 0 0 1 6.722 6.722 6.729 6.729 0 0 1-6.722 6.722m0-12.811a6.1 6.1 0 0 0-6.09 6.09 6.1 6.1 0 0 0 6.09 6.09 6.1 6.1 0 0 0 6.09-6.09 6.1 6.1 0 0 0-6.09-6.09" class="cls-6" data-name="Trazado 1838" transform="translate(1237.677 118.683)"/>
        </g>
    </g>
    <path id="Trazado_1840" d="M-1193.065-170.613c-3.243-2.3-8.381-.334-11.737 4.259a13.387 13.387 0 0 0-2.6 9.73c-.119.174-.24.363-.36.558l-.433-.558a5.878 5.878 0 0 0-.56-4.655c-.154-.237-3.747-5.342-6.733-9.583l-.051-.072a1.811 1.811 0 0 0-1.188-.752 1.8 1.8 0 0 0-1.362.323 1.856 1.856 0 0 0-.739 1.209 1.94 1.94 0 0 0-.025.294l-.543.408a1.8 1.8 0 0 0-.373-.105 1.786 1.786 0 0 0-1.362.32 1.848 1.848 0 0 0-.742 1.207 1.909 1.909 0 0 0-.021.451l-.536.4a1.8 1.8 0 0 0-1.6.266 1.854 1.854 0 0 0-.737 1.21 1.875 1.875 0 0 0 .321 1.387c1.025 1.451 6.181 8.74 7.011 9.732a5.07 5.07 0 0 0 3.724 1.663l1.751 2.729-6.646 8.436a4.082 4.082 0 0 0-.812 3.086 4.3 4.3 0 0 0 1.709 2.873 4.07 4.07 0 0 0 2.418.8 4.05 4.05 0 0 0 .673-.056 4.148 4.148 0 0 0 2.718-1.732l4.2-6.759 4.329 6.746.028.041a4.139 4.139 0 0 0 3.372 1.756 4.073 4.073 0 0 0 2.419-.793 4.308 4.308 0 0 0 1.709-2.874 4.082 4.082 0 0 0-.813-3.086l-6.789-8.745c.487-.585 1.3-1.541 1.706-1.99a12.609 12.609 0 0 0 8.238-5.31 13.126 13.126 0 0 0 2.591-6.64c.181-2.521-.156-4.752-2.161-6.171" class="cls-2" data-name="Trazado 1840" transform="translate(1234.203 179.459)"/>
    <path id="Trazado_1841" d="M-1171.648-150.157a.62.62 0 0 1-.326-.093.649.649 0 0 1-.214-.883 2.209 2.209 0 0 1 1.463-1.1 9.838 9.838 0 0 0 6.9-4.358 10.584 10.584 0 0 0 2.112-5.329 4.014 4.014 0 0 0-1.274-3.639c-2.029-1.534-5.706-.008-8.2 3.4a10.8 10.8 0 0 0-2.122 7.974 2.644 2.644 0 0 1-.256 1.418.627.627 0 0 1-.849.283.649.649 0 0 1-.28-.862 1.367 1.367 0 0 0 .136-.639 12.117 12.117 0 0 1 2.356-8.941 11.61 11.61 0 0 1 4.968-4.028 5.034 5.034 0 0 1 5 .361 5.245 5.245 0 0 1 1.781 4.765 11.893 11.893 0 0 1-2.358 6 11.282 11.282 0 0 1-7.794 4.871c-.119.011-.378.277-.5.48a.629.629 0 0 1-.542.311" class="cls-6" data-name="Trazado 1841" transform="translate(1202.562 176.751)"/>
    <path id="Trazado_1842" d="M-1197.9-134.125a2.936 2.936 0 0 1-2.4-1.249l-.016-.024-10.684-16.643a4.274 4.274 0 0 1-3.462-1.237c-.841-1-6.7-9.3-6.951-9.654a.65.65 0 0 1 .144-.9.624.624 0 0 1 .882.147c.061.086 6.079 8.606 6.886 9.57.85 1.015 2.711.764 2.729.761a.628.628 0 0 1 .623.284l10.876 16.951a1.672 1.672 0 0 0 2.35.381 1.785 1.785 0 0 0 .709-1.189 1.569 1.569 0 0 0-.307-1.187l-12.149-15.649a.654.654 0 0 1-.081-.661c.008-.019.874-2.056.009-3.38-.168-.255-4.918-7-6.735-9.582a.65.65 0 0 1 .146-.9.625.625 0 0 1 .882.148c.673.956 6.582 9.345 6.76 9.619a5.086 5.086 0 0 1 .234 4.242l11.927 15.363a2.859 2.859 0 0 1 .567 2.163 3.081 3.081 0 0 1-1.223 2.054 2.906 2.906 0 0 1-1.72.564" class="cls-6" data-name="Trazado 1842" transform="translate(1232.144 177.364)"/>
    <path id="Trazado_1843" d="M-1206.882-152.533a.627.627 0 0 1-.515-.27l-6.152-8.787a.65.65 0 0 1 .148-.9.625.625 0 0 1 .881.15l6.152 8.787a.65.65 0 0 1-.148.9.62.62 0 0 1-.366.119" class="cls-6" data-name="Trazado 1843" transform="translate(1227.169 173.7)"/>
    <path id="Trazado_1844" d="M-1204.051-96.042a2.9 2.9 0 0 1-1.72-.564 3.079 3.079 0 0 1-1.223-2.054 2.858 2.858 0 0 1 .567-2.163l5.527-7.119a.625.625 0 0 1 .888-.106.651.651 0 0 1 .1.9l-5.527 7.119a1.568 1.568 0 0 0-.307 1.187 1.783 1.783 0 0 0 .71 1.189 1.672 1.672 0 0 0 2.35-.381l4.032-6.285a.626.626 0 0 1 .875-.187.65.65 0 0 1 .183.89l-4.04 6.3-.016.024a2.936 2.936 0 0 1-2.4 1.249" class="cls-6" data-name="Trazado 1844" transform="translate(1222.967 139.281)"/>
    <path id="Trazado_1845" d="M-1224.037-140.054a26.4 26.4 0 0 1-26.369-26.369 26.4 26.4 0 0 1 26.369-26.369 26.4 26.4 0 0 1 26.369 26.369 26.4 26.4 0 0 1-26.369 26.369m0-51.474a25.134 25.134 0 0 0-25.105 25.105 25.133 25.133 0 0 0 25.105 25.105 25.134 25.134 0 0 0 25.105-25.105 25.134 25.134 0 0 0-25.105-25.105" class="cls-2" data-name="Trazado 1845" transform="translate(1250.406 192.792)"/>
    <path id="Trazado_1846" d="M-1074.793-116.378h-6.215l-4.387 5.1v-5.1h-5.878V-100h5.878v-4.434l1.1-1.235 3.4 5.609h6.447l-6.168-9.753z" class="cls-2" data-name="Trazado 1846" transform="translate(1149.757 144.462)"/>
    <path id="Rect치ngulo_248" d="M0 0h5.237v17.271H0z" class="cls-2" data-name="Rect치ngulo 248" transform="translate(76.709 27.13)"/>
    <path id="Trazado_1847" d="M-1015.495-107.131c-4.376 0-7.193 2.56-7.193 6.541s2.817 6.564 7.193 6.564 7.192-2.584 7.192-6.564-2.817-6.541-7.192-6.541m0 9.078c-1.164 0-1.909-.978-1.909-2.467s.745-2.468 1.909-2.468 1.908.978 1.908 2.468-.744 2.467-1.908 2.467" class="cls-2" data-name="Trazado 1847" transform="translate(1106.378 138.613)"/>
    <path id="Trazado_1848" d="M-973.878-105.163v-1.862h-5.237v12.732h5.237v-6.075c0-1.676 1.536-2.514 3.887-2.165v-4.725a4.529 4.529 0 0 0-3.887 2.095" class="cls-2" data-name="Trazado 1848" transform="translate(1078.82 138.693)"/>
    <path id="Trazado_1849" d="M-945.912-107.13c-4.1 0-6.8 2.583-6.8 6.61 0 3.934 2.584 6.494 6.937 6.494A7.491 7.491 0 0 0-940-96.353l-2.723-2.677a3.821 3.821 0 0 1-2.583 1.141 2.1 2.1 0 0 1-2.118-1.513h8.286c.28-4.7-2.327-7.727-6.773-7.727m-1.629 5.307c.209-1.071.768-1.816 1.676-1.816a1.558 1.558 0 0 1 1.49 1.816z" class="cls-2" data-name="Trazado 1849" transform="translate(1062.119 138.613)"/>
    <path id="Trazado_1850" d="M-1076.781-166.973v-4.527h-14.492v18.346h5.97v-6.193h7.983v-4.522h-7.983v-3.109z" class="cls-2" data-name="Trazado 1850" transform="translate(1149.758 179.322)"/>
    <path id="Trazado_1851" d="M-948.97-171.7V-166.231a4.821 4.821 0 0 0-3.726-1.644c-3.828 0-6.295 2.8-6.295 7.142 0 4.445 2.544 7.323 6.449 7.323a4.558 4.558 0 0 0 3.572-1.619v1.748h5.878V-171.7zm-2.081 13.845c-1.285 0-2.107-1.079-2.107-2.723s.822-2.724 2.107-2.724c1.259 0 2.081 1.079 2.081 2.724s-.822 2.723-2.081 2.723" class="cls-2" data-name="Trazado 1851" transform="translate(1066.092 179.449)"/>
</svg>
