<svg xmlns="http://www.w3.org/2000/svg" width="18.376" height="15.513" viewBox="0 0 18.376 15.513">
    <defs>
        <style>
            .cls-1{opacity:.5}.cls-2{fill:none;stroke:#000;stroke-linecap:round;stroke-linejoin:round;stroke-width:2px;fill-rule:evenodd}
        </style>
    </defs>
    <g id="Twitter" class="cls-1" transform="translate(1 1.062)">
        <path id="Trazado_3" d="M1670.376 6222a8.1 8.1 0 0 1-2.337 1.139 3.333 3.333 0 0 0-5.851 2.233v.744a7.939 7.939 0 0 1-6.7-3.372s-2.978 6.7 3.722 9.678a8.651 8.651 0 0 1-5.211 1.489c6.7 3.722 14.888 0 14.888-8.561a3.41 3.41 0 0 0-.06-.618 5.779 5.779 0 0 0 1.549-2.732z" class="cls-2" data-name="Trazado 3" transform="translate(-1654 -6221.986)"/>
    </g>
</svg>
